PathFileType	4	(X/Y/Z)	C:/Users/beibeiliu/ov580/test_trc/User2\sequence.1_training_dense_left.trc
DataRate	CameraRate	NumFrames	NumMarkers	Units	OrigDataRate	OrigDataStartFrame	OrigNumFrames
120	120	9	19	mm	120	296	338
Frame#	Time	ThumbCMC			ThumbMCP			ThumbIP			ThumbTip			IndexMCP			IndexPIP			IndexTip			MiddleMCP			MiddlePIP			MiddleTip			RingMCP			RingPIP			RingTip			PinkyMCP			PinkyPIP			PinkyTip			BackHand1			BackHand2			BackHand3	
		X0	Y0	Z0	X1	Y1	Z1	X2	Y2	Z2	X3	Y3	Z3	X4	Y4	Z4	X5	Y5	Z5	X6	Y6	Z6	X7	Y7	Z7	X8	Y8	Z8	X9	Y9	Z9	X10	Y10	Z10	X11	Y11	Z11	X12	Y12	Z12	X13	Y13	Z13	X14	Y14	Z14	X15	Y15	Z15	X16	Y16	Z16	X17	Y17	Z17	X18	Y18	Z18	
295	2.45833	-137.252	-3.86719	97.5589	-116.574	-13.3031	69.9675	-111.283	-24.9601	41.0656	-100.758	-35.4164	17.4188	-157.723	1.59826	13.7159	-160.18	-2.10137	-13.063	-159.2	-7.00155	-38.9138	-185.408	6.57508	15.0011	-192.213	3.68839	-15.7525	-197.459	-2.34675	-50.3763	-209.95	4.34239	26.8306	-221.571	2.52997	-4.58195	-221.323	-4.49808	-30.7268	-231.956	-2.23225	49.7045	-241.64	-0.517838	23.6561	-251.101	2.17485	0.11648	-200.006	15.2869	79.3393	-196.725	24.1479	107.795	-165.142	18.7657	87.2141	
296	2.46667	-131.592	-1.46488	96.7061	-115.185	-13.1477	71.542	-104.262	-25.9065	36.5948	-96.3996	-38.1194	18.4863	-155.145	-3.57665	13.1961	-153.107	-8.46966	-10.2935	-156.864	-16.6715	-40.2477	-181.318	0.608688	10.5868	-185.918	-5.75219	-19.4992	-195.412	-14.0378	-47.577	-206.877	-0.78102	26.076	-217.901	-5.7149	-2.335	-222.104	-15.2036	-28.7618	-227.329	-5.85929	46.8039	-235.752	-7.6705	22.9682	-244.681	-7.02198	4.18778	-200.029	14.2301	74.8621	-190.089	23.8168	106.96	-160.814	20.6391	85.5168	
297	2.475	-125.488	0.540513	90.1067	-111.904	-11.5393	70.4102	-98.3921	-25.6347	40.3726	-91.6963	-39.4203	19.9596	-150.143	-7.09649	12.8143	-148.721	-15.326	-13.2181	-153.804	-24.8663	-40.7999	-183.252	-4.18372	12.5534	-183.794	-14.2899	-19.0352	-191.117	-26.4546	-49.9231	-204.798	-6.84625	23.983	-215.713	-14.4569	0.911281	-216.259	-26.3013	-29.5152	-223.665	-12.181	50.9535	-231.516	-16.3595	27.8847	-246.296	-19.2292	1.4227	-195.708	9.90636	78.2933	-191.713	25.5423	103.904	-159.701	17.8317	79.506	
298	2.48333	-122.759	3.20535	90.3431	-103.144	-7.35158	70.1928	-94.244	-23.5172	39.4166	-84.5777	-35.8513	23.1557	-149.892	-10.9843	12.0605	-149.127	-21.2293	-13.2338	-148.798	-31.9018	-40.8769	-175.632	-11.5823	9.51178	-180.554	-22.3487	-17.1759	-191.015	-38.6738	-48.292	-199.428	-14.3622	23.1474	-207.944	-24.6081	-2.45769	-214.606	-37.3909	-23.7106	-216.559	-19.35	48.1813	-231.699	-27.2524	26.6262	-242.959	-30.8349	9.42093	-189.51	7.83514	75.7735	-185.754	24.5328	102.857	-156.24	19.2942	79.1553	
299	2.49167	-119.339	7.17918	89.0595	-103.031	-2.95726	71.7606	-88.2966	-18.6977	39.3969	-76.4033	-31.0402	20.0783	-146.867	-15.4276	12.4875	-145.856	-24.8309	-11.1288	-144.949	-36.8137	-34.0126	-176.447	-19.2582	10.2688	-177.601	-31.6295	-14.273	-180.549	-47.8801	-41.1334	-198.813	-22.1823	29.4882	-206.87	-35.9316	2.79775	-206.527	-49.558	-20.5307	-214.447	-27.5828	54.6414	-221.448	-36.8172	32.378	-235.509	-44.284	5.74933	-189.352	5.22958	76.5446	-186.94	22.4651	101.708	-155.534	18.3414	78.1815	
300	2.5	-118.381	12.8096	93.9763	-99.115	2.47014	67.3969	-85.5943	-12.7016	42.5793	-70.129	-25.5731	24.0353	-145.15	-17.3309	13.9469	-137.153	-27.5431	-9.13616	-140.695	-43.1006	-33.2152	-172.602	-25.4539	13.9621	-171.945	-41.307	-12.3332	-171.998	-59.8493	-36.9297	-194.438	-30.6838	27.9589	-197.248	-44.4948	7.71882	-201.158	-65.5775	-19.8754	-209.771	-36.5364	52.8385	-218.419	-48.5211	34.5192	-225.561	-59.3184	13.8402	-185.827	-0.0872122	77.8676	-183.992	20.3611	98.5976	-157.562	18.3622	77.8248	
301	2.50833	-120.161	15.5682	90.1028	-97.4198	9.39251	66.2416	-78.654	-3.99637	43.4003	-66.1761	-14.9413	28.4449	-140.876	-19.5734	18.4124	-133.545	-31.3548	-6.34244	-128.633	-47.0473	-30.9466	-166.809	-30.4178	18.8541	-165.66	-52.9156	-11.5753	-166.456	-72.9234	-32.2665	-184.91	-38.5046	32.2433	-192.64	-57.1774	10.2985	-187.471	-77.6303	-16.0433	-203.051	-45.0408	56.6468	-209.6	-61.2638	36.7467	-214.342	-74.0348	16.6916	-187.211	-6.03664	79.3591	-187.203	16.3184	99.9157	-155.842	19.5328	75.3997	
302	2.51667	-119.435	23.0808	89.0044	-96.6078	18.2538	65.2635	-79.3307	6.71391	44.2733	-61.2905	-3.70758	24.0608	-133.347	-18.4142	18.477	-127.933	-32.5548	-4.57284	-121.221	-52.1753	-30.2171	-160.744	-38.1672	18.0115	-155.468	-59.0881	-7.78845	-150.902	-78.8357	-27.7433	-178.735	-48.1483	31.3991	-182.302	-67.315	15.1516	-175.465	-89.4752	-10.2227	-191.879	-53.789	58.7237	-195.909	-71.6784	38.8951	-200.634	-89.1454	21.4313	-183.871	-9.95425	79.2558	-188.722	9.79018	101.608	-156.006	19.1146	77.6747	
303	2.525	-123.521	26.8064	89.9788	-99.9789	27.3347	65.1896	-81.278	16.1134	43.1295	-61.5145	11.0678	26.2318	-133.661	-21.3655	19.9662	-124.354	-37.3958	-4.95055	-115.168	-52.7987	-24.8191	-153.488	-42.1903	17.5092	-147.107	-65.0445	-3.73197	-136.042	-85.8215	-24.9825	-171.475	-54.3588	38.9216	-166.478	-71.7844	17.3433	-159.595	-95.523	-2.97351	-179.977	-59.3507	62.175	-184.621	-84.1117	43.1481	-183.469	-99.2612	28.709	-180.172	-17.1695	77.5174	-189.686	3.81578	99.5115	-159.476	16.6498	77.4174	
